<svg width="400" height="400" viewBox="0 0 400 400" xmlns="http://www.w3.org/2000/svg">
  <defs>
    <linearGradient id="bgGrad" x1="0%" y1="0%" x2="100%" y2="100%">
      <stop offset="0%" style="stop-color:#1e40af;stop-opacity:1" />
      <stop offset="100%" style="stop-color:#3b82f6;stop-opacity:1" />
    </linearGradient>
  </defs>
  
  <!-- Background -->
  <rect width="400" height="400" fill="url(#bgGrad)" rx="20"/>
  
  <!-- Building icon -->
  <g transform="translate(100, 80)">
    <!-- Main building -->
    <rect x="40" y="40" width="120" height="200" fill="#ffffff" stroke="#e5e7eb" stroke-width="2"/>
    
    <!-- Windows -->
    <rect x="55" y="65" width="15" height="15" fill="#3b82f6"/>
    <rect x="80" y="65" width="15" height="15" fill="#3b82f6"/>
    <rect x="105" y="65" width="15" height="15" fill="#3b82f6"/>
    <rect x="130" y="65" width="15" height="15" fill="#3b82f6"/>
    
    <rect x="55" y="95" width="15" height="15" fill="#3b82f6"/>
    <rect x="80" y="95" width="15" height="15" fill="#3b82f6"/>
    <rect x="105" y="95" width="15" height="15" fill="#3b82f6"/>
    <rect x="130" y="95" width="15" height="15" fill="#3b82f6"/>
    
    <rect x="55" y="125" width="15" height="15" fill="#3b82f6"/>
    <rect x="80" y="125" width="15" height="15" fill="#3b82f6"/>
    <rect x="105" y="125" width="15" height="15" fill="#3b82f6"/>
    <rect x="130" y="125" width="15" height="15" fill="#3b82f6"/>
    
    <!-- Door -->
    <rect x="85" y="200" width="30" height="40" fill="#1e40af"/>
    
    <!-- Left building -->
    <rect x="0" y="80" width="45" height="160" fill="#f3f4f6" stroke="#e5e7eb" stroke-width="2"/>
    <rect x="10" y="100" width="10" height="10" fill="#6b7280"/>
    <rect x="25" y="100" width="10" height="10" fill="#6b7280"/>
    <rect x="10" y="120" width="10" height="10" fill="#6b7280"/>
    <rect x="25" y="120" width="10" height="10" fill="#6b7280"/>
    
    <!-- Right building -->
    <rect x="155" y="60" width="45" height="180" fill="#f3f4f6" stroke="#e5e7eb" stroke-width="2"/>
    <rect x="165" y="80" width="10" height="10" fill="#6b7280"/>
    <rect x="180" y="80" width="10" height="10" fill="#6b7280"/>
    <rect x="165" y="100" width="10" height="10" fill="#6b7280"/>
    <rect x="180" y="100" width="10" height="10" fill="#6b7280"/>
  </g>
  
  <!-- Company name -->
  <text x="200" y="320" font-family="Arial, sans-serif" font-size="24" font-weight="bold" text-anchor="middle" fill="white">CONSTRUCTORA</text>
  <text x="200" y="350" font-family="Arial, sans-serif" font-size="32" font-weight="bold" text-anchor="middle" fill="white">ABC</text>
  <text x="200" y="375" font-family="Arial, sans-serif" font-size="14" text-anchor="middle" fill="#e5e7eb">Construcción Profesional</text>
</svg>